# xmcd
#
# Track frame offsets:
#	150
#	17522
#	40278
#	56068
#	76862
#	93301
#	109699
#	129096
#	141739
#	155866
#	172395
#	184622
#
# Disc length: 2591 seconds
#
# Revision: 1
# Processed by: cddbd v1.5.2PL0 Copyright (c) Steve Scherf et al.
# Submitted via: audiograbber 1.83.01
#
DISCID=a20a1d0c
DTITLE=Dierks Bentley - Pickin' On Dierks Bentley
DYEAR=2005
DGENRE=Country
TTITLE0=Lot of Leavin' Left To Do
TTITLE1=What Was I Thinkin'
TTITLE2=My Last Name
TTITLE3=Come a Little Closer
TTITLE4=How Am I Doin'
TTITLE5=Cab of My Truck
TTITLE6=Modern Day Drifter
TTITLE7=Good Man Like Me
TTITLE8=Wish It Would Break
TTITLE9=Good Things Happen
TTITLE10=Easy Street
TTITLE11=Hillbilly Tank Top
EXTD=
EXTT0=
EXTT1=
EXTT2=
EXTT3=
EXTT4=
EXTT5=
EXTT6=
EXTT7=
EXTT8=
EXTT9=
EXTT10=
EXTT11=
PLAYORDER=
